<svg width="16" height="16" viewBox="0 0 16 16" xmlns="http://www.w3.org/2000/svg"><title>16</title><g fill="none" fill-rule="evenodd"><path d="M2.88 12.523L.12 9.42l.34-3.796 3.265-2.53L15.87 4.13l-.847 9.43L2.88 12.522zM1.19 8.1c.24.02.452-.153.472-.386a.427.427 0 0 0-.395-.46.432.432 0 0 0-.47.386c-.022.233.155.44.394.46z" fill="#FFF100"/><path d="M15.968 4.05l-.862 9.606L2.834 12.61.024 9.45l.35-3.872 3.323-2.576 12.27 1.047zM.548 5.67L.214 9.39l2.71 3.048 12.016 1.025.83-9.252L3.753 3.186.548 5.67zm.687 1.494h.033l.007.002h.014l.005.002h.007l.007.002h.005l.007.002h.006l.007.002.006.002h.008l.006.002.007.002.007.002h.006l.007.003.006.002.006.002h.006l.007.003.006.002.007.002.006.003.006.002.005.002.006.003.007.003.006.002.005.003.006.003.006.002.006.003.005.003.007.003.005.002.006.004.005.003.006.002.004.003.005.004.005.002.005.004.005.003.005.003.005.004.005.003.005.004.005.004.005.004.005.004.005.004.005.004.004.004.005.004.004.005.004.004.005.005.004.005.004.004.006.005.004.003.004.005.004.004.004.005.004.005.004.005.004.004.004.006.004.005.004.006.003.005.003.006.003.005.004.006.003.006.004.005.003.005.003.005.003.006.003.005.002.006.003.005.003.004.003.006.004.006.003.005.002.007.002.005.002.006.003.006.002.006.002.005.002.006.002.007.002.006.002.006.002.005.002.006.002.007v.006l.003.006v.005l.002.006v.008l.003.006v.006l.002.006v.006l.002.007v.011l.002.008v.012l.002.007V7.727l-.002.007v.006l-.002.008v.006l-.002.007v.007l-.002.006v.007l-.003.006v.006L1.74 7.8v.005l-.003.006-.002.007-.002.006v.007l-.003.006-.002.006-.003.006-.002.006-.002.006v.006l-.004.005-.002.007-.003.006-.002.006-.002.004-.003.006-.003.006-.003.005-.003.007-.003.005-.002.006-.003.005-.003.006-.004.004-.003.005-.003.005-.004.005-.003.005-.004.005-.003.005-.003.005-.004.005-.004.005-.004.005L1.638 8l-.004.004-.004.005-.004.004-.004.004-.004.005-.005.005-.004.004-.005.004-.005.005-.004.005-.005.004-.004.004-.004.004-.005.004-.005.004-.005.004-.004.004-.005.004-.005.003-.005.005-.005.004-.005.002-.005.004-.006.004-.005.003-.005.003-.005.004-.006.003-.005.003-.005.003-.005.002-.006.003-.005.003-.007.003-.005.004-.006.003-.006.003-.006.002-.005.003-.006.002-.007.003-.006.002-.006.003-.005.002-.006.002h-.007l-.006.003-.006.002-.005.002-.006.002h-.007l-.007.002-.006.002h-.006l-.006.003H1.34l-.005.002H1.33l-.008.002h-.006l-.007.002h-.007l-.007.002H1.283l-.006.002H1.25l-.006.002h-.046l-.007-.002h-.02l-.007-.002h-.006l-.007-.002h-.007l-.006-.002H1.13l-.006-.003-.007-.002H1.11l-.006-.003h-.006l-.006-.003-.007-.002-.006-.002h-.007l-.007-.003-.006-.002-.006-.002-.006-.002-.006-.002-.006-.002-.006-.002-.006-.003-.006-.003-.006-.003-.006-.003H1l-.005-.004-.006-.003-.007-.003-.006-.003-.005-.003-.006-.003L.96 8.12l-.005-.003-.005-.003-.005-.004-.006-.003L.933 8.1.93 8.1l-.007-.004-.005-.003-.005-.003-.005-.004-.005-.004-.005-.005-.005-.003-.004-.004-.006-.004L.88 8.06l-.006-.005L.87 8.05l-.005-.003-.004-.004-.004-.005-.004-.004-.005-.005-.004-.005L.84 8.02l-.005-.004L.83 8.01l-.004-.003-.004-.005-.004-.005-.004-.005-.003-.005-.003-.005-.004-.005L.8 7.972l-.004-.005-.004-.005-.003-.005-.005-.005-.003-.005-.003-.005-.004-.006-.004-.005-.003-.005-.004-.005-.003-.005L.76 7.91l-.003-.006-.002-.006-.003-.006-.003-.005-.003-.006-.003-.005-.002-.005-.003-.006-.003-.006-.002-.006-.002-.006L.73 7.84v-.005L.726 7.83l-.002-.007-.002-.006L.72 7.81v-.006l-.002-.006v-.006l-.003-.006V7.78l-.002-.006-.002-.007v-.011L.707 7.75v-.014L.705 7.73V7.717L.703 7.71V7.633l.002-.007V7.61l.002-.006V7.6l.002-.007v-.006l.003-.007v-.006l.002-.007.002-.006v-.005L.72 7.55l.002-.008v-.006l.003-.006.002-.006.002-.006v-.006l.003-.006.002-.006.003-.006.002-.006.003-.006.002-.006.003-.005.002-.005.003-.006.003-.007.003-.005v-.006l.004-.005.003-.006.004-.004.004-.006.003-.005.003-.005.004-.006.003-.005.003-.006.004-.005.004-.006L.8 7.38l.005-.006.004-.005.003-.006.004-.005.004-.006.005-.005.004-.006.003-.004.004-.005.004-.004.005-.004.005-.004.004-.005.005-.004.003-.004.005-.006.004-.004.005-.004.005-.004.004-.004.005-.004.006-.004.005-.004.006-.004.005-.004.006-.003.005-.004.006-.002.005-.004.007-.003.005-.003.005-.003.005-.003.006-.003.005-.003.006-.003.004-.002.006-.003.005-.003.006-.003.007-.003.005-.003.006-.003h.006l.006-.004.006-.002.006-.003h.005l.006-.003.006-.002.005-.002.006-.002h.008l.006-.003.006-.002.006-.002.006-.002h.006l.007-.002h.006l.007-.003h.007l.006-.002h.006l.007-.002h.012l.006-.002h.007l.005-.002h.02l.007-.002h.034zm-.01.178H1.194l-.004.002H1.18l-.003.002H1.17l-.006.002h-.008l-.004.002h-.004l-.004.002H1.14l-.004.002h-.004l-.004.003h-.004l-.004.002h-.004l-.004.002h-.004l-.004.003H1.1l-.004.003h-.003l-.004.003-.005.003H1.08l-.002.003-.004.002-.004.002-.004.002-.003.002-.004.002-.004.002-.004.002-.003.002-.005.002-.003.002-.004.002-.003.003-.004.003-.002.002-.003.003-.004.002-.002.002-.003.003-.003.003-.004.002-.003.003-.003.002L1 7.428l-.004.003-.003.003-.003.003-.003.003-.003.002-.003.003-.002.003-.002.003-.003.004-.003.003-.003.003-.002.003-.003.003-.002.003-.003.002-.002.004-.003.003-.002.002-.003.003-.002.004-.002.002-.003.003-.002.004-.002.002-.002.004-.002.003-.002.003-.002.003-.002.004-.002.004-.002.003-.002.004-.002.005-.002.003v.004l-.003.004-.002.004v.003l-.002.004v.004l-.003.005v.004l-.002.003-.002.004V7.586l-.002.004v.003l-.002.004V7.6l-.002.005v.004l-.002.004v.004l-.002.004v.008l-.002.005v.016l-.002.004V7.71l.002.006v.008l.002.004v.008l.002.004v.008l.002.004v.004l.002.004v.004l.003.004v.008l.002.004.002.004v.003l.002.004.002.005V7.8l.003.003.002.003.002.004.002.004v.004l.003.003v.005l.003.003.002.004.002.004.002.003v.003l.003.003.002.004.002.003.002.003.002.004.002.003.002.004.002.003.003.003.003.003.003.004.002.003.003.003.003.003.003.002.003.003v.003l.004.003.003.004.003.003.003.003.003.003.003.003v.003h.004l.004.004.003.003.004.003.003.002.003.003.003.002.003.003.004.002.003.003.003.002.004.003.003.002.003.002.004.002.003.003h.004l.003.003.004.002.004.002.003.002h.005l.004.003.002.002.004.002.004.002h.004l.003.002.004.002h.005l.004.003h.003l.004.003h.004l.005.003h.004l.003.002.004.002h.004L1.136 8h.007l.004.002h.005l.004.002h.004l.004.002h.008l.004.002H1.186l.005.002h.017l.005.002H1.26l.005-.002h.012l.004-.002h.008l.004-.002h.004l.005-.002h.004L1.31 8h.005L1.32 8h.003l.004-.002h.004l.005-.002.004-.002h.003l.004-.002.004-.002h.005l.003-.003h.004l.004-.003h.004l.004-.003h.003l.004-.003h.005l.004-.003.002-.002.004-.002.003-.002.003-.002.004-.002.003-.002.004-.002.003-.003.004-.002.004-.002.003-.002.004-.002.004-.002.003-.002.004-.003h.004l.003-.004.003-.003.003-.002.003-.002.004-.002.003-.003.003-.003.003-.003.002-.003.002-.002.003-.003.003-.004.003-.003.003-.003.003-.003v-.003l.004-.003.003-.002.002-.004.002-.003.002-.002.003-.003.002-.003v-.004l.004-.003.002-.003.002-.004.003-.003.003-.004.002-.002.002-.004.002-.003v-.003l.003-.003.002-.004.002-.004.002-.003V7.82l.002-.005.002-.003.002-.004v-.004L1.55 7.8v-.004l.002-.004V7.79l.003-.005V7.78l.002-.003.002-.004V7.764l.002-.004v-.003l.002-.004v-.005l.002-.004V7.74l.002-.004V7.727l.002-.004V7.71l.002-.004v-.07l-.002-.004v-.008l-.002-.004V7.613l-.002-.004v-.005L1.563 7.6v-.003l-.002-.004V7.59l-.002-.004v-.004l-.002-.004-.002-.004V7.57l-.002-.004-.002-.004v-.004l-.003-.003-.002-.004-.002-.003v-.004l-.003-.003-.002-.004v-.004l-.002-.003-.002-.005-.002-.003-.002-.004-.002-.004-.002-.003-.002-.003-.002-.003-.002-.003-.003-.003-.003-.003-.002-.004-.002-.003-.003-.003-.002-.004-.003-.003-.002-.003L1.5 7.47l-.002-.002-.003-.004-.002-.003-.003-.002-.003-.003-.003-.003-.002-.003-.003-.004-.004-.003-.003-.002-.003-.002-.003-.003-.003-.003-.003-.003-.002-.003-.003-.003-.003-.003H1.45l-.004-.004-.004-.002-.003-.003h-.004l-.004-.004-.003-.002-.004-.002-.004-.003-.003-.003-.005-.002-.003-.002-.004-.002-.003-.002-.004-.002-.003-.002-.003-.002H1.39l-.004-.003-.003-.003-.004-.002-.005-.002H1.37L1.37 7.37l-.004-.002H1.36l-.004-.003h-.004l-.004-.003h-.004l-.004-.003-.004-.002h-.004l-.004-.002-.004-.002H1.32l-.005-.002H1.31l-.003-.002H1.3l-.006-.002H1.29l-.004-.002h-.008l-.004-.002H1.254L1.25 7.34H1.224z" fill="#000"/><path d="M11.568 8.87l.386.776.043.004c.05-.087.097-.173.158-.255l.333-.448 1.657.142-1.532 1.49-.11 1.217-1.44-.123.108-1.218-1.27-1.73 1.668.143z" fill="#000"/><path d="M9.948 8.73l-.15 1.673c-.074.824-.823 1.138-1.918 1.045-1.095-.094-1.777-.53-1.704-1.354l.15-1.672 1.422.12-.14 1.576c-.02.22-.028.417.35.45.38.03.407-.163.427-.384l.14-1.574 1.423.12zM2.758 8.112l1.716.147c.786.066 1.576.265 1.517.918-.02.247-.22.475-.583.524l-.002.022c.432.147.69.395.66.733-.05.58-.844.713-1.554.653l-2.006-.17.254-2.828zM4.16 9.327c.217.02.46.024.478-.17.018-.21-.257-.22-.473-.237l-.102-.01-.036.406.134.01zm-.23 1.053l.168.015c.242.02.592.046.613-.186.022-.237-.355-.265-.59-.286l-.147-.012-.042.468zM6.076 5.212l2.728.232-.07.772-1.242-.106-.024.27 1.135.097-.066.735-1.135-.097-.025.277 1.286.11-.07.772-2.77-.236.253-2.826zM9.21 7.307l.072.048c.25.165.558.308.897.337.145.012.38-.01.39-.137.013-.127-.18-.155-.313-.185l-.293-.063c-.57-.12-1.032-.398-.992-.84.06-.67.97-.97 1.853-.896.463.04.88.156 1.264.358l-.464.69a1.987 1.987 0 0 0-.837-.287c-.13-.01-.32.008-.332.124-.01.105.173.136.284.164l.33.08c.614.152 1.046.423 1.003.902-.06.675-.973.933-1.85.86a5.007 5.007 0 0 1-1.538-.393l.524-.76zM12.203 5.734l3.1.264-.083.92-.81-.097-.173 1.936-1.475-.126.174-1.934-.815-.043.083-.92zM2.452 4.887l1.717.146c.785.067 1.575.267 1.516.92-.022.246-.222.475-.584.523L5.1 6.5c.432.145.69.394.66.73-.05.582-.844.715-1.554.654L2.2 7.714l.252-2.827zm1.404 1.215c.215.018.46.024.476-.17.02-.21-.256-.22-.472-.238l-.102-.01-.036.406.134.012zm-.23 1.053l.167.014c.242.02.592.046.613-.187.02-.236-.356-.264-.592-.284l-.146-.014-.042.47z" fill="#000"/></g></svg>